<?xml version="1.0" encoding="utf-8"?>
<!-- Generator: Adobe Illustrator 20.1.0, SVG Export Plug-In . SVG Version: 6.00 Build 0)  -->
<svg version="1.1" id="Layer_1" xmlns="http://www.w3.org/2000/svg" xmlns:xlink="http://www.w3.org/1999/xlink" x="0px" y="0px"
	 viewBox="0 0 146 146" style="enable-background:new 0 0 146 146;" xml:space="preserve">
<style type="text/css">
	.st0{fill:none;}
	.st1{fill:#FFFFFF;}
</style>
<title>Artboard Copy</title>
<desc>Created with Sketch.</desc>
<rect class="st0" width="146" height="146"/>
<g id="Page-1_1_">
	<g id="Artboard-Copy-2">
		<g id="delivery" transform="translate(7.264547, 34.070312)">
			<path id="Shape" class="st1" d="M17.2,82.6C5.3,82.6-4.3,73-4.3,61.1s9.6-21.5,21.5-21.5s21.5,9.6,21.5,21.5S29.1,82.6,17.2,82.6
				z M17.2,49.5c-6.4,0-11.7,5.2-11.7,11.7s5.2,11.6,11.7,11.6s11.7-5.2,11.7-11.7C28.8,54.7,23.6,49.5,17.2,49.5L17.2,49.5z"/>
			<path id="Shape_1_" class="st1" d="M108.6,82.6c-11.9,0-21.5-9.6-21.5-21.5s9.6-21.5,21.5-21.5s21.5,9.6,21.5,21.5
				S120.5,82.6,108.6,82.6L108.6,82.6z M108.6,49.5c-6.4,0-11.7,5.2-11.7,11.7s5.2,11.7,11.7,11.7s11.7-5.2,11.7-11.7
				S115.1,49.5,108.6,49.5L108.6,49.5z"/>
			<path id="Shape_2_" class="st1" d="M79.4,66.1h-33v-4.9c0-10.4-5.6-20.1-14.6-25.3s-20.2-5.2-29.2,0c-2.4,1.4-5.4,0.6-6.8-1.8
				s-0.6-5.4,1.8-6.8c6-3.5,12.7-5.3,19.6-5.3C37.1,22,53.5,36.9,56,56.1h13.9C72.3,36.9,88.8,22,108.7,22c10.3,0,20.1,4,27.4,11.2
				c1.8,1.9,1.8,5-0.1,6.8s-4.9,2-6.8,0.2c-8.4-8.3-20.9-10.7-31.8-6.1s-18,15.2-18,27V66.1z"/>
			<path id="Shape_3_" class="st1" d="M40.3,19.4H5.9c-2.7,0-4.9-2.2-4.9-4.9s2.2-4.9,4.9-4.9h34.4c2.7,0,4.9,2.2,4.9,4.9
				S43.1,19.4,40.3,19.4z"/>
			<path id="Shape_4_" class="st1" d="M96.9,14.2H62.5c-2.7,0-4.9-2.2-4.9-4.9s2.2-4.9,4.9-4.9h34.4c2.7,0,4.9,2.2,4.9,4.9
				S99.7,14.2,96.9,14.2z"/>
			<path id="Shape_5_" class="st1" d="M69.6,61.1V11.7c0-7.7,6.2-13.9,13.9-13.9l0,0c7.6,0,17.6,6.2,22.1,13.9l9.2,15.5
				c0,0-11.4-1.7-18.5,2c-7,3.7-13.1,7.2-16.2,13s-5,10.2-5.3,14.1c-0.3,3.8-0.3,4.8-0.3,4.8L69.6,61.1z"/>
			<path id="Shape_6_" class="st1" d="M122.9,4.2c-4.7,0-8.5,3.8-8.5,8.5s3.8,8.5,8.5,8.5V4.2z"/>
		</g>
	</g>
</g>
</svg>
