<?xml version="1.0" encoding="utf-8"?>
<!-- Generator: Adobe Illustrator 20.1.0, SVG Export Plug-In . SVG Version: 6.00 Build 0)  -->
<svg version="1.1" id="Layer_1" xmlns="http://www.w3.org/2000/svg" xmlns:xlink="http://www.w3.org/1999/xlink" x="0px" y="0px"
	 viewBox="0 0 146 146" style="enable-background:new 0 0 146 146;" xml:space="preserve">
<style type="text/css">
	.st0{fill:#FFFFFF;}
	.st1{fill:none;}
</style>
<title>Artboard Copy</title>
<desc>Created with Sketch.</desc>
<g id="Page-1">
	<g id="Artboard-Copy">
		<g id="Group-3" transform="translate(23.080193, 23.556641)">
			<path id="Combined-Shape" class="st0" d="M24.8,35.4l8.2-8.2H0V12.3h47.9L59.1,1.1C59.8,0.4,60.8,0,61.8,0s1.9,0.4,2.6,1.1
				l11.2,11.2h23.1v14.9H77.1l-8.2,8.2h29.8V93H41.6V74.7H13.5v18.4H0V35.4H24.8z M80,19.1L63.2,2.3c-0.8-0.8-2.1-0.8-2.9,0
				L42.2,20.4l19.7,19.7L80,22C80.8,21.2,80.8,19.9,80,19.1z M22.9,39.7c-0.8,0.8-0.8,2.1,0,2.9l16.8,16.7c0.4,0.4,0.9,0.6,1.5,0.6
				c0.5,0,1.1-0.2,1.5-0.6l18.1-18.1L41,21.6L22.9,39.7z"/>
			<g id="Dominos-Logo-Copy-4" transform="translate(28.793365, 15.364406)">
				<path id="Fill-134" class="st0" d="M16,22.5c0.9-0.9,2.2-1.4,3.4-1.4c1.2,0,2.5,0.5,3.4,1.4c1,0.9,1.4,2.2,1.4,3.4
					c0,1.2-0.5,2.5-1.4,3.4s-2.2,1.4-3.4,1.4c-1.2,0-2.5-0.5-3.4-1.4s-1.4-2.2-1.4-3.4C14.5,24.7,15,23.5,16,22.5L16,22.5z"/>
				<path id="Fill-134_1_" class="st0" d="M8.6,29.2c-0.9,0.9-2.2,1.4-3.4,1.4s-2.5-0.5-3.4-1.4S0.4,27,0.4,25.8
					c0-1.2,0.5-2.5,1.4-3.4S4,21,5.2,21s2.5,0.5,3.4,1.4s1.4,2.2,1.4,3.4S9.5,28.2,8.6,29.2L8.6,29.2z"/>
				<path id="Fill-132" class="st0" d="M36.5,8.5c-1,1-2.2,1.5-3.5,1.5c-1.2,0-2.5-0.5-3.4-1.4s-1.4-2.2-1.4-3.4s0.5-2.5,1.4-3.4
					c1-0.9,2.2-1.4,3.4-1.4c1.2,0,2.5,0.5,3.4,1.4s1.4,2.2,1.4,3.4C37.9,6.3,37.4,7.6,36.5,8.5"/>
			</g>
		</g>
	</g>
</g>
<rect class="st1" width="146" height="146"/>
</svg>
